/* XPM */
static char * hide_inactive_xpm[] = {
"14 15 3 1",
" 	c None",
".	c #F6F6F6 s active_color_2",
"+	c #B1B1B1 s inactive_text_color",
"..............",
"..............",
"..............",
"..............",
"..............",
"..............",
"..............",
"...++++++++...",
"...++++++++...",
"..............",
"..............",
"..............",
"..............",
"..............",
".............."};
