/* XPM */
static char * title_5_inactive_xpm[] = {
"5 24 3 1",
" 	c None",
".	c #F6F6F6 s active_color_2",
"+	c #808080",
"+++++",
".....",
".....",
".....",
".....",
".....",
".....",
".....",
".....",
".....",
".....",
".....",
".....",
".....",
".....",
".....",
".....",
".....",
".....",
".....",
".....",
".....",
".....",
"....."};
