/* XPM */
static char * bottom_right_active_xpm[] = {
"8 8 6 1",
" 	c None",
".	c #E6E6E6",
"+	c #F6F6F6",
"@	c #919293",
"#	c #909192",
"$	c #929394",
"     .+@",
"     .+@",
"     .+@",
"     .+@",
"     .+@",
"......+@",
"+++++++@",
"#####@@$"};
