/* XPM */
static char *bottom-left-inactive[] = {
/* columns rows colors chars-per-pixel */
"8 8 23 1",
"  c #8F9091",
". c #909192",
"X c #919293",
"o c #939495",
"O c #949596",
"+ c #B5AD9C",
"@ c #B4AE9F",
"# c #B6AE9F",
"$ c #B4AEA0",
"% c #B4AEA1",
"& c #B5AFA1",
"* c #B5AEA2",
"= c #B6AEA0",
"- c #B7AEA1",
"; c #B6B0A2",
": c #B6B1A3",
"> c #B7B1A5",
", c #B7B2A8",
"< c #E6E6E6",
"1 c #F6F6F6",
"2 c gray99",
"3 c gray100",
"4 c None",
/* pixels */
" 1<44444",
" 1<44444",
" 1<44444",
" 1<44444",
".1<44444",
"X1<<<<<<",
"o2111111",
"Xo......"
};
