/* XPM */
static char * bottom_left_active_xpm[] = {
"8 8 9 1",
" 	c None",
".	c #8F9091",
"+	c #F6F6F6",
"@	c #E6E6E6",
"#	c #919293",
"$	c #939495",
"%	c #FCFCFC",
"&	c #909192",
"*	c #949596",
".+@     ",
".+@     ",
".+@     ",
".+@     ",
".+@     ",
"#+@@@@@@",
"$%++++++",
"&*&&&&&&"};
