/* XPM */
static char * left_active_xpm[] = {
"3 5 4 1",
" 	c #868989",
".	c #F6F6F6",
"+	c #E6E6E6",
"@	c #878989",
" .+",
" .+",
" .+",
"@.+",
"@.+"};
