/* XPM */
static char * maximize_active_xpm[] = {
"12 16 3 1",
" 	c None",
".	c #E6E6E6",
"+	c #68696B",
"............",
"............",
"............",
"............",
"..++++++++..",
"..++++++++..",
"..+......+..",
"..+......+..",
"..+......+..",
"..+......+..",
"..+......+..",
"..++++++++..",
"............",
"............",
"............",
"............"};
