/* XPM */
static char *right-inactive[] = {
/* columns rows colors chars-per-pixel */
"3 5 3 1",
"  c #888B8B",
". c #E6E6E6",
"X c #F6F6F6",
/* pixels */
".X ",
".X ",
".X ",
".X ",
".X "
};
