/* XPM */
static char *shade-active[] = {
/* columns rows colors chars-per-pixel */
"12 16 3 1",
"  c #444444",
". c #F6F8FA",
"X c gray100",
/* pixels */
"            ",
"            ",
"            ",
"            ",
"     ..     ",
"    ....    ",
"   ......   ",
"  ...XX...  ",
"   . XX .   ",
"     XX     ",
"     XX     ",
"     XX     ",
"            ",
"            ",
"            ",
"            "
};
