/* XPM */
static char *shade-pressed[] = {
/* columns rows colors chars-per-pixel */
"12 16 2 1",
"  c #444444",
". c #D2D2D2",
/* pixels */
"            ",
"            ",
"            ",
"            ",
"     ..     ",
"    ....    ",
"   ......   ",
"  ........  ",
"   . .. .   ",
"     ..     ",
"     ..     ",
"     ..     ",
"            ",
"            ",
"            ",
"            "
};
