/* XPM */
static char *stick-active[] = {
/* columns rows colors chars-per-pixel */
"12 16 2 1",
"  c #444444",
". c gray100",
/* pixels */
"            ",
"            ",
"            ",
"            ",
"            ",
"      .  .  ",
"      ....  ",
"  ........  ",
"  ........  ",
"      ....  ",
"      .  .  ",
"            ",
"            ",
"            ",
"            ",
"            "
};
