/* XPM */
static char * title_5_active_xpm[] = {
"7 22 4 1",
" 	c #868A8A",
".	c #878A8A",
"+	c #F6F6F6",
"@	c #E6E6E6",
"  ..  .",
"+++++++",
"@@@@@@@",
"@@@@@@@",
"@@@@@@@",
"@@@@@@@",
"@@@@@@@",
"@@@@@@@",
"@@@@@@@",
"@@@@@@@",
"@@@@@@@",
"@@@@@@@",
"@@@@@@@",
"@@@@@@@",
"@@@@@@@",
"@@@@@@@",
"@@@@@@@",
"@@@@@@@",
"@@@@@@@",
"@@@@@@@",
"@@@@@@@",
"@@@@@@@"};
