/* XPM */
static char *top-right-inactive[] = {
/* columns rows colors chars-per-pixel */
"4 22 11 1",
"  c #7E8383",
". c #878A8A",
"X c #878A8B",
"o c #878B8B",
"O c #888A8B",
"+ c #888B8B",
"@ c #8D8F90",
"# c #8F9192",
"$ c #E6E6E6",
"% c #F6F6F6",
"& c gray99",
/* pixels */
"..@ ",
"%%&@",
"$$%+",
"$$%+",
"$$%X",
"$$%+",
"$$%+",
"$$%+",
"$$%+",
"$$%+",
"$$%+",
"$$%+",
"$$%+",
"$$%+",
"$$%O",
"$$%O",
"$$%O",
"$$%O",
"$$%O",
"$$%O",
"$$%O",
"$$%+"
};
