/* XPM */
static char * top_right_active_xpm[] = {
"4 22 11 1",
" 	c #878A8A",
".	c #878B8B",
"+	c #8D8F90",
"@	c #7E8383",
"#	c #F6F6F6",
"$	c #FCFCFC",
"%	c #8F9192",
"&	c #E6E6E6",
"*	c #888B8B",
"=	c #878A8B",
"-	c #888A8B",
" .+@",
"##$%",
"&&#*",
"&&#=",
"&&#=",
"&&#-",
"&&#=",
"&&#-",
"&&#-",
"&&#*",
"&&#*",
"&&#-",
"&&#-",
"&&#-",
"&&#-",
"&&#-",
"&&#-",
"&&#-",
"&&#-",
"&&#-",
"&&#-",
"&&#*"};
