/* XPM */
static char *top-left-inactive[] = {
/* columns rows colors chars-per-pixel */
"4 22 8 1",
"  c #7F8584",
". c #868989",
"X c #868A8A",
"o c #878A8A",
"O c #878B8B",
"+ c #E6E6E6",
"@ c gray96",
"# c #F6F6F6",
/* pixels */
" ooo",
"o@#@",
"o#++",
"o#++",
"o@++",
"o@++",
"o@++",
"o@++",
"o#++",
"o@++",
"o@++",
"o@++",
"o@++",
"o@++",
"o@++",
"o@++",
"o@++",
"o@++",
"o@++",
"o@++",
"o@++",
"o@++"
};
